<?xml version="1.0" encoding="utf-8"?>
<!-- Generator: Adobe Illustrator 21.0.0, SVG Export Plug-In . SVG Version: 6.00 Build 0)  -->
<svg version="1.1" id="Слой_1" xmlns="http://www.w3.org/2000/svg" xmlns:xlink="http://www.w3.org/1999/xlink" x="0px" y="0px"
	 viewBox="0 0 806 686" style="enable-background:new 0 0 806 686;" xml:space="preserve">
<style type="text/css">
	.st0{fill:none;enable-background:new    ;}
	.st1{fill:none;stroke:#000000;stroke-linecap:square;stroke-miterlimit:10;}
	.st2{fill:#E0E0E0;stroke:#000000;stroke-miterlimit:10;}
	.st3{fill:#FFFFFF;stroke:#000000;stroke-miterlimit:10;}
	.st4{fill:none;stroke:#000000;stroke-miterlimit:10;}
	.st5{font-family:'Verdana';}
	.st6{font-size:14px;}
	.st7{fill:none;}
	.st8{font-family:'Helvetica-Bold';}
	.st9{font-size:12px;}
	.st10{font-family:'Helvetica';}
	.st11{fill:none;stroke:#000000;stroke-miterlimit:10;enable-background:new    ;}
</style>
<path class="st0" d="M-38-30.9"/>
<path pointer-events="all" class="st1" d="M659.4,509.6"/>
<path pointer-events="all" class="st1" d="M659.4,535.6"/>
<path pointer-events="all" class="st1" d="M659.4,545.6"/>
<g>
	<path pointer-events="all" class="st2" d="M300.4,389.6v-26h200v26"/>
	<path pointer-events="all" class="st3" d="M300.4,389.6v94h200v-94"/>
	<path pointer-events="all" class="st4" d="M300.4,389.6h200"/>
	<g transform="translate(-0.5 -0.5)">
		<text transform="matrix(1 0 0 1 343.8914 380.61)" class="st5 st6">academic_years</text>
	</g>
	<rect x="300.4" y="389.6" pointer-events="all" class="st7" width="200" height="30"/>
	<path pointer-events="all" class="st1" d="M500.4,419.6h-200"/>
	<g transform="translate(-0.5 -0.5)">
		<text transform="matrix(1 0 0 1 336.3938 408.61)" class="st8 st9" style="text-decoration: underline;">id (bigint, auto inc.)</text>
	</g>
	<rect x="300.4" y="389.6" pointer-events="all" class="st7" width="30" height="30"/>
	<path pointer-events="all" class="st1" d="M330.4,389.6v30"/>
	<g transform="translate(-0.5 -0.5)">
		<text transform="matrix(1 0 0 1 306.3938 408.61)" class="st10 st9">PK</text>
	</g>
	<rect x="300.4" y="419.6" pointer-events="all" class="st7" width="200" height="26"/>
	<g transform="translate(-0.5 -0.5)">
		<text transform="matrix(1 0 0 1 336.3938 438.61)" class="st10 st9">calendar_year (varchar 255)</text>
	</g>
	<rect x="300.4" y="419.6" pointer-events="all" class="st7" width="30" height="26"/>
	<path pointer-events="all" class="st1" d="M330.4,419.6v26"/>
	<rect x="300.4" y="445.6" pointer-events="all" class="st7" width="200" height="26"/>
	<g transform="translate(-0.5 -0.5)">
		<text transform="matrix(1 0 0 1 336.3938 464.61)" class="st10 st9">number (varchar 255)</text>
	</g>
	<rect x="300.4" y="445.6" pointer-events="all" class="st7" width="30" height="26"/>
	<path pointer-events="all" class="st1" d="M330.4,445.6v26"/>
	<rect x="300.4" y="471.6" pointer-events="all" class="st7" width="200" height="10"/>
	<rect x="300.4" y="471.6" pointer-events="all" class="st7" width="30" height="10"/>
	<path pointer-events="all" class="st1" d="M330.4,471.6v10"/>
</g>
<path pointer-events="all" class="st2" d="M589.4,33.6v-26h190v26"/>
<path pointer-events="all" class="st1" d="M589.4,89.6"/>
<path pointer-events="all" class="st1" d="M589.4,115.6"/>
<path pointer-events="all" class="st1" d="M589.4,141.6"/>
<path pointer-events="all" class="st1" d="M589.4,167.6"/>
<path pointer-events="all" class="st1" d="M589.4,177.6"/>
<g>
	<path pointer-events="all" class="st3" d="M589.4,33.6v144h190v-144"/>
	<path pointer-events="all" class="st4" d="M589.4,33.6h190"/>
	<g transform="translate(-0.5 -0.5)">
		<text transform="matrix(1 0 0 1 642.6775 24.61)" class="st5 st6">auditoriums</text>
	</g>
	<rect x="589.4" y="33.6" pointer-events="all" class="st7" width="190" height="30"/>
	<path pointer-events="all" class="st1" d="M779.4,63.6h-190"/>
	<g transform="translate(-0.5 -0.5)">
		<text transform="matrix(1 0 0 1 625.3938 52.61)" class="st8 st9" style="text-decoration: underline;">id (bigint, auto inc.)</text>
	</g>
	<rect x="589.4" y="33.6" pointer-events="all" class="st7" width="30" height="30"/>
	<path pointer-events="all" class="st1" d="M619.4,33.6v30"/>
	<g transform="translate(-0.5 -0.5)">
		<text transform="matrix(1 0 0 1 595.3938 52.61)" class="st10 st9">PK</text>
	</g>
	<rect x="589.4" y="63.6" pointer-events="all" class="st7" width="190" height="26"/>
	<g transform="translate(-0.5 -0.5)">
		<text transform="matrix(1 0 0 1 625.3938 82.61)" class="st10 st9">capacity (smallint)</text>
	</g>
	<rect x="589.4" y="63.6" pointer-events="all" class="st7" width="30" height="26"/>
	<path pointer-events="all" class="st1" d="M619.4,63.6v26"/>
	<rect x="589.4" y="89.6" pointer-events="all" class="st7" width="190" height="26"/>
	<g transform="translate(-0.5 -0.5)">
		<text transform="matrix(1 0 0 1 625.3938 108.61)" class="st10 st9">has_screen (boolean)</text>
	</g>
	<rect x="589.4" y="89.6" pointer-events="all" class="st7" width="30" height="26"/>
	<path pointer-events="all" class="st1" d="M619.4,89.6v26"/>
	<rect x="589.4" y="115.6" pointer-events="all" class="st7" width="190" height="26"/>
	<g transform="translate(-0.5 -0.5)">
		<text transform="matrix(1 0 0 1 625.3938 134.61)" class="st10 st9">index (varchar 255)</text>
	</g>
	<rect x="589.4" y="115.6" pointer-events="all" class="st7" width="30" height="26"/>
	<path pointer-events="all" class="st1" d="M619.4,115.6v26"/>
	<rect x="589.4" y="141.6" pointer-events="all" class="st7" width="190" height="26"/>
	<g transform="translate(-0.5 -0.5)">
		<text transform="matrix(1 0 0 1 625.3938 160.61)" class="st10 st9" style="text-decoration: underline;">faculty_name (varchar255)</text>
	</g>
	<rect x="589.4" y="141.6" pointer-events="all" class="st7" width="30" height="26"/>
	<path pointer-events="all" class="st1" d="M619.4,141.6v26"/>
	<g transform="translate(-0.5 -0.5)">
		<text transform="matrix(1 0 0 1 595.3938 160.61)" class="st10 st9">FK</text>
	</g>
	<rect x="589.4" y="167.6" pointer-events="all" class="st7" width="190" height="10"/>
	<rect x="589.4" y="167.6" pointer-events="all" class="st7" width="30" height="10"/>
	<path pointer-events="all" class="st1" d="M619.4,167.6v10"/>
</g>
<path pointer-events="all" class="st1" d="M29.4,99.6"/>
<path pointer-events="all" class="st1" d="M29.4,109.6"/>
<g>
	<path pointer-events="all" class="st2" d="M29.4,43.6v-26h190v26"/>
	<path pointer-events="all" class="st3" d="M29.4,43.6v66h190v-66"/>
	<path pointer-events="all" class="st4" d="M29.4,43.6h190"/>
	<g transform="translate(-0.5 -0.5)">
		<text transform="matrix(1 0 0 1 79.738 34.61)" class="st5 st6">departments</text>
	</g>
	<rect x="29.4" y="43.6" pointer-events="all" class="st7" width="190" height="30"/>
	<path pointer-events="all" class="st1" d="M219.4,73.6h-190"/>
	<g transform="translate(-0.5 -0.5)">
		<text transform="matrix(1 0 0 1 65.3938 62.61)" class="st8 st9" style="text-decoration: underline;">name (varchar 255)</text>
	</g>
	<rect x="29.4" y="43.6" pointer-events="all" class="st7" width="30" height="30"/>
	<path pointer-events="all" class="st1" d="M59.4,43.6v30"/>
	<g transform="translate(-0.5 -0.5)">
		<text transform="matrix(1 0 0 1 35.3938 62.61)" class="st10 st9">PK</text>
	</g>
	<rect x="29.4" y="73.6" pointer-events="all" class="st7" width="190" height="26"/>
	<g transform="translate(-0.5 -0.5)">
		<text transform="matrix(1 0 0 1 65.3938 92.61)" class="st10 st9" style="text-decoration: underline;">faculty_name (varchar 255)</text>
	</g>
	<rect x="29.4" y="73.6" pointer-events="all" class="st7" width="30" height="26"/>
	<path pointer-events="all" class="st1" d="M59.4,73.6v26"/>
	<g transform="translate(-0.5 -0.5)">
		<text transform="matrix(1 0 0 1 35.3938 92.61)" class="st10 st9">FK</text>
	</g>
	<rect x="29.4" y="99.6" pointer-events="all" class="st7" width="190" height="10"/>
	<rect x="29.4" y="99.6" pointer-events="all" class="st7" width="30" height="10"/>
	<path pointer-events="all" class="st1" d="M59.4,99.6v10"/>
</g>
<g>
	<path pointer-events="all" class="st2" d="M564.4,447.6v-26h190v26"/>
	<path pointer-events="all" class="st3" d="M564.4,447.6v66h190v-66"/>
	<path pointer-events="all" class="st4" d="M564.4,447.6h190"/>
	<g transform="translate(-0.5 -0.5)">
		<text transform="matrix(1 0 0 1 578.4836 438.61)" class="st5 st6">day_schedules_studies</text>
	</g>
	<rect x="564.4" y="447.6" pointer-events="all" class="st7" width="190" height="30"/>
	<path pointer-events="all" class="st7" d="M754.4,477.6h-190"/>
	<g transform="translate(-0.5 -0.5)">
		<text transform="matrix(1 0 0 1 600.3938 466.61)" class="st10 st9" style="text-decoration: underline;">day_schedule_id (bigint)</text>
	</g>
	<rect x="564.4" y="447.6" pointer-events="all" class="st7" width="30" height="30"/>
	<path pointer-events="all" class="st1" d="M594.4,447.6v30"/>
	<g transform="translate(-0.5 -0.5)">
		<text transform="matrix(1 0 0 1 570.3938 466.61)" class="st10 st9">FK</text>
	</g>
	<rect x="564.4" y="477.6" pointer-events="all" class="st7" width="190" height="26"/>
	<path pointer-events="all" class="st7" d="M564.4,503.6"/>
	<g transform="translate(-0.5 -0.5)">
		<text transform="matrix(1 0 0 1 600.3938 496.61)" class="st10 st9" style="text-decoration: underline;">study_id (bigint)</text>
	</g>
	<rect x="564.4" y="477.6" pointer-events="all" class="st7" width="30" height="26"/>
	<path pointer-events="all" class="st1" d="M594.4,477.6v26"/>
	<g transform="translate(-0.5 -0.5)">
		<text transform="matrix(1 0 0 1 570.3938 496.61)" class="st10 st9">FK</text>
	</g>
	<rect x="564.4" y="503.6" pointer-events="all" class="st7" width="190" height="10"/>
	<path pointer-events="all" class="st1" d="M564.4,513.6"/>
	<rect x="564.4" y="503.6" pointer-events="all" class="st7" width="30" height="10"/>
	<path pointer-events="all" class="st1" d="M594.4,503.6v10"/>
</g>
<path pointer-events="all" class="st2" d="M29.4,163.6v-26h220v26"/>
<path pointer-events="all" class="st3" d="M29.4,163.6v66h220v-66"/>
<path pointer-events="all" class="st4" d="M29.4,163.6h220"/>
<g transform="translate(-0.5 -0.5)">
	<text transform="matrix(1 0 0 1 51.8831 154.61)" class="st5 st6">departments_professors</text>
</g>
<rect x="64.9" y="193.6" pointer-events="all" class="st7" width="243.5" height="30"/>
<path pointer-events="all" class="st7" d="M244.4,193.6h-215"/>
<g transform="translate(-0.5 -0.5)">
	<text transform="matrix(1 0 0 1 65.3938 182.61)" class="st10 st9" style="text-decoration: underline;">department_name (varchar 255)</text>
</g>
<rect x="29.4" y="163.6" pointer-events="all" class="st7" width="30" height="30"/>
<path pointer-events="all" class="st1" d="M59.4,163.6v30"/>
<g transform="translate(-0.5 -0.5)">
	<text transform="matrix(1 0 0 1 35.3938 182.61)" class="st10 st9">FK</text>
</g>
<rect x="29.4" y="193.6" pointer-events="all" class="st7" width="220" height="26"/>
<path pointer-events="all" class="st7" d="M29.4,219.6"/>
<g transform="translate(-0.5 -0.5)">
	<text transform="matrix(1 0 0 1 65.3938 212.61)" class="st10 st9" style="text-decoration: underline;">professor_card (varchar 255)</text>
</g>
<rect x="29.4" y="193.6" pointer-events="all" class="st7" width="30" height="26"/>
<path pointer-events="all" class="st1" d="M59.4,193.6v26"/>
<g transform="translate(-0.5 -0.5)">
	<text transform="matrix(1 0 0 1 35.3938 212.61)" class="st10 st9">FK</text>
</g>
<rect x="29.4" y="219.6" pointer-events="all" class="st7" width="220" height="10"/>
<path pointer-events="all" class="st1" d="M29.4,229.6"/>
<rect x="29.4" y="219.6" pointer-events="all" class="st7" width="30" height="10"/>
<path pointer-events="all" class="st1" d="M59.4,219.6v10"/>
<g>
	<path pointer-events="all" class="st2" d="M299.4,43.6v-26h190v26"/>
	<path pointer-events="all" class="st3" d="M299.4,43.6v34h190v-34"/>
	<path pointer-events="all" class="st4" d="M299.4,43.6h190"/>
	<g transform="translate(-0.5 -0.5)">
		<text transform="matrix(1 0 0 1 365.2351 34.61)" class="st5 st6">faculties</text>
	</g>
	<rect x="299.4" y="43.6" pointer-events="all" class="st7" width="190" height="30"/>
	<path pointer-events="all" class="st7" d="M489.4,73.6h-190"/>
	<g transform="translate(-0.5 -0.5)">
		<text transform="matrix(1 0 0 1 335.3938 62.61)" class="st8 st9" style="text-decoration: underline;">name (varchar 255)</text>
	</g>
	<rect x="299.4" y="43.6" pointer-events="all" class="st7" width="30" height="30"/>
	<path pointer-events="all" class="st1" d="M329.4,43.6v30"/>
	<g transform="translate(-0.5 -0.5)">
		<text transform="matrix(1 0 0 1 305.3938 62.61)" class="st10 st9">PK</text>
	</g>
</g>
<path pointer-events="all" class="st1" d="M-110.6,699.6"/>
<path pointer-events="all" class="st1" d="M-110.6,725.6"/>
<path pointer-events="all" class="st1" d="M-110.6,751.6"/>
<path pointer-events="all" class="st1" d="M-110.6,761.6"/>
<g>
	<path pointer-events="all" class="st2" d="M564.4,562.6v-26h180v26"/>
	<path pointer-events="all" class="st3" d="M564.4,562.6v118h180v-118"/>
	<path pointer-events="all" class="st4" d="M564.4,562.6h180"/>
	<g transform="translate(-0.5 -0.5)">
		<text transform="matrix(1 0 0 1 602.8679 553.61)" class="st5 st6">day_schedules</text>
	</g>
	<rect x="564.4" y="562.6" pointer-events="all" class="st7" width="180" height="30"/>
	<path pointer-events="all" class="st1" d="M744.4,592.6h-180"/>
	<g transform="translate(-0.5 -0.5)">
		<text transform="matrix(1 0 0 1 600.3938 581.61)" class="st8 st9" style="text-decoration: underline;">id (bigint, auto inc.)</text>
	</g>
	<rect x="564.4" y="562.6" pointer-events="all" class="st7" width="30" height="30"/>
	<path pointer-events="all" class="st1" d="M594.4,562.6v30"/>
	<g transform="translate(-0.5 -0.5)">
		<text transform="matrix(1 0 0 1 570.3938 581.61)" class="st10 st9">PK</text>
	</g>
	<rect x="564.4" y="592.6" pointer-events="all" class="st7" width="180" height="26"/>
	<g transform="translate(-0.5 -0.5)">
		<text transform="matrix(1 0 0 1 600.3938 611.61)" class="st10 st9">semester (varchar255)</text>
	</g>
	<rect x="564.4" y="592.6" pointer-events="all" class="st7" width="30" height="26"/>
	<path pointer-events="all" class="st1" d="M594.4,592.6v26"/>
	<rect x="564.4" y="618.6" pointer-events="all" class="st7" width="180" height="26"/>
	<g transform="translate(-0.5 -0.5)">
		<text transform="matrix(1 0 0 1 600.3938 637.61)" class="st10 st9">study_day (varchar255)</text>
	</g>
	<rect x="564.4" y="618.6" pointer-events="all" class="st7" width="30" height="26"/>
	<path pointer-events="all" class="st1" d="M594.4,618.6v26"/>
	<rect x="564.4" y="644.6" pointer-events="all" class="st7" width="180" height="26"/>
	<g transform="translate(-0.5 -0.5)">
		<text transform="matrix(1 0 0 1 600.3938 663.61)" class="st10 st9" style="text-decoration: underline;">group_id</text>
	</g>
	<rect x="564.4" y="644.6" pointer-events="all" class="st7" width="30" height="26"/>
	<path pointer-events="all" class="st1" d="M594.4,644.6v26"/>
	<g transform="translate(-0.5 -0.5)">
		<text transform="matrix(1 0 0 1 570.3938 663.61)" class="st10 st9">FK</text>
	</g>
	<rect x="564.4" y="670.6" pointer-events="all" class="st7" width="180" height="10"/>
	<rect x="564.4" y="670.6" pointer-events="all" class="st7" width="30" height="10"/>
	<path pointer-events="all" class="st1" d="M594.4,670.6v10"/>
</g>
<path pointer-events="all" class="st1" d="M619.4,699.6"/>
<path pointer-events="all" class="st1" d="M619.4,725.6"/>
<path pointer-events="all" class="st1" d="M619.4,751.6"/>
<path pointer-events="all" class="st1" d="M619.4,761.6"/>
<g>
	<path pointer-events="all" class="st2" d="M163.4,533.6v-26h220v26"/>
	<path pointer-events="all" class="st3" d="M163.4,533.6v118h220v-118"/>
	<path pointer-events="all" class="st4" d="M163.4,533.6h220"/>
	<g transform="translate(-0.5 -0.5)">
		<text transform="matrix(1 0 0 1 249.3586 524.61)" class="st5 st6">groups</text>
	</g>
	<rect x="163.4" y="533.6" pointer-events="all" class="st7" width="220" height="30"/>
	<path pointer-events="all" class="st1" d="M383.4,563.6h-220"/>
	<g transform="translate(-0.5 -0.5)">
		<text transform="matrix(1 0 0 1 199.3938 552.61)" class="st8 st9" style="text-decoration: underline;">id (bigint, auto inc.)</text>
	</g>
	<rect x="163.4" y="533.6" pointer-events="all" class="st7" width="30" height="30"/>
	<path pointer-events="all" class="st1" d="M193.4,533.6v30"/>
	<g transform="translate(-0.5 -0.5)">
		<text transform="matrix(1 0 0 1 169.3938 552.61)" class="st10 st9">PK</text>
	</g>
	<rect x="163.4" y="563.6" pointer-events="all" class="st7" width="220" height="26"/>
	<g transform="translate(-0.5 -0.5)">
		<text transform="matrix(1 0 0 1 199.3938 582.61)" class="st10 st9">group_number (varchar 255)</text>
	</g>
	<rect x="163.4" y="563.6" pointer-events="all" class="st7" width="30" height="26"/>
	<path pointer-events="all" class="st1" d="M193.4,563.6v26"/>
	<rect x="163.4" y="589.6" pointer-events="all" class="st7" width="220" height="26"/>
	<g transform="translate(-0.5 -0.5)">
		<text transform="matrix(1 0 0 1 199.3938 608.61)" class="st10 st9" style="text-decoration: underline;">academic_year_id (bigint)</text>
	</g>
	<rect x="163.4" y="589.6" pointer-events="all" class="st7" width="30" height="26"/>
	<path pointer-events="all" class="st1" d="M193.4,589.6v26"/>
	<g transform="translate(-0.5 -0.5)">
		<text transform="matrix(1 0 0 1 169.3938 608.61)" class="st10 st9">FK</text>
	</g>
	<rect x="163.4" y="615.6" pointer-events="all" class="st7" width="220" height="26"/>
	<g transform="translate(-0.5 -0.5)">
		<text transform="matrix(1 0 0 1 199.3938 634.61)" class="st10 st9" style="text-decoration: underline;">department_name (varchar 255)</text>
	</g>
	<rect x="163.4" y="615.6" pointer-events="all" class="st7" width="30" height="26"/>
	<path pointer-events="all" class="st1" d="M193.4,615.6v26"/>
	<g transform="translate(-0.5 -0.5)">
		<text transform="matrix(1 0 0 1 169.3938 634.61)" class="st10 st9">FK</text>
	</g>
	<rect x="163.4" y="641.6" pointer-events="all" class="st7" width="220" height="10"/>
	<rect x="163.4" y="641.6" pointer-events="all" class="st7" width="30" height="10"/>
	<path pointer-events="all" class="st1" d="M193.4,641.6v10"/>
</g>
<path pointer-events="all" class="st1" d="M289.4,219.6"/>
<path pointer-events="all" class="st1" d="M289.4,245.6"/>
<path pointer-events="all" class="st1" d="M289.4,271.6"/>
<path pointer-events="all" class="st1" d="M289.4,297.6"/>
<path pointer-events="all" class="st1" d="M289.4,323.6"/>
<path pointer-events="all" class="st1" d="M289.4,333.6"/>
<g>
	<path pointer-events="all" class="st2" d="M289.4,163.6v-26h210v26"/>
	<path pointer-events="all" class="st3" d="M289.4,163.6v170h210v-170"/>
	<path pointer-events="all" class="st4" d="M289.4,163.6h210"/>
	<g transform="translate(-0.5 -0.5)">
		<text transform="matrix(1 0 0 1 357.989 154.61)" class="st5 st6">professors</text>
	</g>
	<rect x="289.4" y="163.6" pointer-events="all" class="st7" width="210" height="30"/>
	<path pointer-events="all" class="st1" d="M499.4,193.6h-210"/>
	<g transform="translate(-0.5 -0.5)">
		<text transform="matrix(1 0 0 1 325.3938 182.61)" class="st8 st9" style="text-decoration: underline;">professor_card (varchar 255)</text>
	</g>
	<rect x="289.4" y="163.6" pointer-events="all" class="st7" width="30" height="30"/>
	<path pointer-events="all" class="st1" d="M319.4,163.6v30"/>
	<g transform="translate(-0.5 -0.5)">
		<text transform="matrix(1 0 0 1 295.3938 182.61)" class="st10 st9">PK</text>
	</g>
	<rect x="289.4" y="193.6" pointer-events="all" class="st7" width="210" height="26"/>
	<g transform="translate(-0.5 -0.5)">
		<text transform="matrix(1 0 0 1 325.3938 212.61)" class="st10 st9">name (varchar 255)</text>
	</g>
	<rect x="289.4" y="193.6" pointer-events="all" class="st7" width="30" height="26"/>
	<path pointer-events="all" class="st1" d="M319.4,193.6v26"/>
	<rect x="289.4" y="219.6" pointer-events="all" class="st7" width="210" height="26"/>
	<g transform="translate(-0.5 -0.5)">
		<text transform="matrix(1 0 0 1 325.3938 238.61)" class="st10 st9">surname (varchar 255)</text>
	</g>
	<rect x="289.4" y="219.6" pointer-events="all" class="st7" width="30" height="26"/>
	<path pointer-events="all" class="st1" d="M319.4,219.6v26"/>
	<rect x="289.4" y="245.6" pointer-events="all" class="st7" width="210" height="26"/>
	<g transform="translate(-0.5 -0.5)">
		<text transform="matrix(1 0 0 1 325.3938 264.61)" class="st10 st9">phone_number (varchar 255)</text>
	</g>
	<rect x="289.4" y="245.6" pointer-events="all" class="st7" width="30" height="26"/>
	<path pointer-events="all" class="st1" d="M319.4,245.6v26"/>
	<rect x="289.4" y="271.6" pointer-events="all" class="st7" width="210" height="26"/>
	<g transform="translate(-0.5 -0.5)">
		<text transform="matrix(1 0 0 1 325.3938 290.61)" class="st10 st9">rank (varchar 255)</text>
	</g>
	<rect x="289.4" y="271.6" pointer-events="all" class="st7" width="30" height="26"/>
	<path pointer-events="all" class="st1" d="M319.4,271.6v26"/>
	<rect x="289.4" y="297.6" pointer-events="all" class="st7" width="210" height="26"/>
	<g transform="translate(-0.5 -0.5)">
		<text transform="matrix(1 0 0 1 325.3938 316.61)" class="st10 st9">is_dismissed (boolean)</text>
	</g>
	<rect x="289.4" y="297.6" pointer-events="all" class="st7" width="30" height="26"/>
	<path pointer-events="all" class="st1" d="M319.4,297.6v26"/>
	<rect x="289.4" y="323.6" pointer-events="all" class="st7" width="210" height="10"/>
	<rect x="289.4" y="323.6" pointer-events="all" class="st7" width="30" height="10"/>
	<path pointer-events="all" class="st1" d="M319.4,323.6v10"/>
</g>
<g>
	<path pointer-events="all" class="st2" d="M29.4,281.6v-26h230v26"/>
	<path pointer-events="all" class="st3" d="M29.4,281.6v196h230v-196"/>
	<path pointer-events="all" class="st4" d="M29.4,281.6h230"/>
	<g transform="translate(-0.5 -0.5)">
		<text transform="matrix(1 0 0 1 114.1926 272.61)" class="st5 st6">students</text>
	</g>
	<rect x="29.4" y="281.6" pointer-events="all" class="st7" width="230" height="30"/>
	<path pointer-events="all" class="st1" d="M259.4,311.6h-230"/>
	<g transform="translate(-0.5 -0.5)">
		<text transform="matrix(1 0 0 1 65.3938 300.61)" class="st8 st9" style="text-decoration: underline;">student_card (varchar 255)</text>
	</g>
	<rect x="29.4" y="281.6" pointer-events="all" class="st7" width="30" height="30"/>
	<path pointer-events="all" class="st1" d="M59.4,281.6v30"/>
	<g transform="translate(-0.5 -0.5)">
		<text transform="matrix(1 0 0 1 35.3938 300.61)" class="st10 st9">PK</text>
	</g>
	<rect x="29.4" y="311.6" pointer-events="all" class="st7" width="230" height="26"/>
	<path pointer-events="all" class="st1" d="M29.4,337.6"/>
	<g transform="translate(-0.5 -0.5)">
		<text transform="matrix(1 0 0 1 65.3938 330.61)" class="st10 st9">name (varchar 255)</text>
	</g>
	<rect x="29.4" y="311.6" pointer-events="all" class="st7" width="30" height="26"/>
	<path pointer-events="all" class="st1" d="M59.4,311.6v26"/>
	<rect x="29.4" y="337.6" pointer-events="all" class="st7" width="230" height="26"/>
	<path pointer-events="all" class="st1" d="M29.4,363.6"/>
	<g transform="translate(-0.5 -0.5)">
		<text transform="matrix(1 0 0 1 65.3938 356.61)" class="st10 st9">surname (varchar 255)</text>
	</g>
	<rect x="29.4" y="337.6" pointer-events="all" class="st7" width="30" height="26"/>
	<path pointer-events="all" class="st1" d="M59.4,337.6v26"/>
	<rect x="29.4" y="363.6" pointer-events="all" class="st7" width="230" height="26"/>
	<path pointer-events="all" class="st1" d="M29.4,389.6"/>
	<g transform="translate(-0.5 -0.5)">
		<text transform="matrix(1 0 0 1 65.3938 382.61)" class="st10 st9">phone_number (varchar 255)</text>
	</g>
	<rect x="29.4" y="363.6" pointer-events="all" class="st7" width="30" height="26"/>
	<path pointer-events="all" class="st1" d="M59.4,363.6v26"/>
	<rect x="29.4" y="389.6" pointer-events="all" class="st7" width="230" height="26"/>
	<path pointer-events="all" class="st1" d="M29.4,415.6"/>
	<g transform="translate(-0.5 -0.5)">
		<text transform="matrix(1 0 0 1 65.3938 408.61)" class="st10 st9" style="text-decoration: underline;">department_name </text>
		<text transform="matrix(1 0 0 1 166.0938 408.61)" class="st10 st9">(varchar 255)</text>
	</g>
	<rect x="29.4" y="389.6" pointer-events="all" class="st7" width="30" height="26"/>
	<path pointer-events="all" class="st1" d="M59.4,389.6v26"/>
	<g transform="translate(-0.5 -0.5)">
		<text transform="matrix(1 0 0 1 35.3938 408.61)" class="st10 st9">FK</text>
	</g>
	<rect x="29.4" y="415.6" pointer-events="all" class="st7" width="230" height="26"/>
	<path pointer-events="all" class="st1" d="M29.4,441.6"/>
	<g transform="translate(-0.5 -0.5)">
		<text transform="matrix(1 0 0 1 65.3938 434.61)" class="st10 st9" style="text-decoration: underline;">academic_year id (bigint)</text>
	</g>
	<rect x="29.4" y="415.6" pointer-events="all" class="st7" width="30" height="26"/>
	<path pointer-events="all" class="st1" d="M59.4,415.6v26"/>
	<g transform="translate(-0.5 -0.5)">
		<text transform="matrix(1 0 0 1 35.3938 434.61)" class="st10 st9">FK</text>
	</g>
	<rect x="29.4" y="441.6" pointer-events="all" class="st7" width="230" height="26"/>
	<path pointer-events="all" class="st1" d="M29.4,467.6"/>
	<g transform="translate(-0.5 -0.5)">
		<text transform="matrix(1 0 0 1 65.3938 460.61)" class="st10 st9" style="text-decoration: underline;">group_id (bigint)</text>
	</g>
	<rect x="29.4" y="441.6" pointer-events="all" class="st7" width="30" height="26"/>
	<path pointer-events="all" class="st1" d="M59.4,441.6v26"/>
	<g transform="translate(-0.5 -0.5)">
		<text transform="matrix(1 0 0 1 35.3938 460.61)" class="st10 st9">FK</text>
	</g>
	<rect x="29.4" y="467.6" pointer-events="all" class="st7" width="230" height="10"/>
	<path pointer-events="all" class="st1" d="M29.4,477.6"/>
	<rect x="29.4" y="467.6" pointer-events="all" class="st7" width="30" height="10"/>
	<path pointer-events="all" class="st1" d="M59.4,467.6v10"/>
</g>
<path pointer-events="all" class="st1" d="M549.4,283.6"/>
<path pointer-events="all" class="st1" d="M549.4,309.6"/>
<path pointer-events="all" class="st1" d="M549.4,335.6"/>
<path pointer-events="all" class="st1" d="M549.4,361.6"/>
<path pointer-events="all" class="st1" d="M549.4,371.6"/>
<g>
	<path pointer-events="all" class="st2" d="M549.4,227.6v-26h230v26"/>
	<path pointer-events="all" class="st3" d="M549.4,227.6v144h230v-144"/>
	<path pointer-events="all" class="st4" d="M549.4,227.6h230"/>
	<g transform="translate(-0.5 -0.5)">
		<text transform="matrix(1 0 0 1 639.4597 218.61)" class="st5 st6">studies</text>
	</g>
	<rect x="549.4" y="227.6" pointer-events="all" class="st7" width="230" height="30"/>
	<path pointer-events="all" class="st1" d="M779.4,257.6h-230"/>
	<g transform="translate(-0.5 -0.5)">
		<text transform="matrix(1 0 0 1 585.3938 246.61)" class="st8 st9" style="text-decoration: underline;">id (bigint, auto inc.)</text>
	</g>
	<rect x="549.4" y="227.6" pointer-events="all" class="st7" width="30" height="30"/>
	<path pointer-events="all" class="st1" d="M579.4,227.6v30"/>
	<g transform="translate(-0.5 -0.5)">
		<text transform="matrix(1 0 0 1 555.3938 246.61)" class="st10 st9">PK</text>
	</g>
	<rect x="549.4" y="257.6" pointer-events="all" class="st7" width="230" height="26"/>
	<g transform="translate(-0.5 -0.5)">
		<text transform="matrix(1 0 0 1 585.3938 276.61)" class="st10 st9">name (varchar 255)</text>
	</g>
	<rect x="549.4" y="257.6" pointer-events="all" class="st7" width="30" height="26"/>
	<path pointer-events="all" class="st1" d="M579.4,257.6v26"/>
	<rect x="549.4" y="283.6" pointer-events="all" class="st7" width="230" height="26"/>
	<g transform="translate(-0.5 -0.5)">
		<text transform="matrix(1 0 0 1 585.3938 302.61)" class="st10 st9">type (varchar 255)</text>
	</g>
	<rect x="549.4" y="283.6" pointer-events="all" class="st7" width="30" height="26"/>
	<path pointer-events="all" class="st1" d="M579.4,283.6v26"/>
	<rect x="549.4" y="309.6" pointer-events="all" class="st7" width="230" height="26"/>
	<g transform="translate(-0.5 -0.5)">
		<text transform="matrix(1 0 0 1 585.3938 328.61)" class="st10 st9" style="text-decoration: underline;">professor_card (varchar 255)</text>
	</g>
	<rect x="549.4" y="309.6" pointer-events="all" class="st7" width="30" height="26"/>
	<path pointer-events="all" class="st1" d="M579.4,309.6v26"/>
	<g transform="translate(-0.5 -0.5)">
		<text transform="matrix(1 0 0 1 555.3938 328.61)" class="st10 st9">FK</text>
	</g>
	<rect x="549.4" y="335.6" pointer-events="all" class="st7" width="230" height="26"/>
	<g transform="translate(-0.5 -0.5)">
		<text transform="matrix(1 0 0 1 585.3938 354.61)" class="st10 st9" style="text-decoration: underline;">auditorium_id (bigint)</text>
	</g>
	<rect x="549.4" y="335.6" pointer-events="all" class="st7" width="30" height="26"/>
	<path pointer-events="all" class="st1" d="M579.4,335.6v26"/>
	<g transform="translate(-0.5 -0.5)">
		<text transform="matrix(1 0 0 1 555.3938 354.61)" class="st10 st9">FK</text>
	</g>
	<rect x="549.4" y="361.6" pointer-events="all" class="st7" width="230" height="10"/>
	<rect x="549.4" y="361.6" pointer-events="all" class="st7" width="30" height="10"/>
	<path pointer-events="all" class="st1" d="M579.4,361.6v10"/>
</g>
<path pointer-events="stroke" class="st4" d="M299.4,58.6h-30c-6.7,0-10,3.3-10,10v9c0,6-3.3,9-10,9h-30"/>
<path pointer-events="stroke" class="st4" d="M489.4,58.6h40c6.7,0,10,3.3,10,10v76c0,6.7,3.3,10,10,10h40"/>
<path pointer-events="stroke" class="st4" d="M249.4,206.6h11.2c5.9,0,8.9-3.3,8.9-10v-9c0-6,3-9,8.9-9h11"/>
<path pointer-events="stroke" class="st4" d="M29.4,178.6h-5c-3.3,0-5-3.1-5-9.4V75c0-6.3,1.7-9.4,5-9.4h5"/>
<path pointer-events="stroke" class="st4" d="M163.4,628.6H28.2c-15,0-23.3-16-23.3-48V100.1c0-32,3.9-48,11.6-48H28"/>
<path pointer-events="stroke" class="st4" d="M28.2,409.6h-7.8c-5.2,0-7.8-9.7-7.8-29.2V88.3c0-19.5,2.6-29.2,7.8-29.2h7.8"/>
<path class="st11" d="M-38-30.9"/>
<path pointer-events="stroke" class="st4" d="M499.4,177.6h20c3.3,0,5,5.1,5,15.2v115.6c0,10.1,1.7,15.2,5,15.2h20"/>
<path pointer-events="stroke" class="st4" d="M778.6,350.6h11.5c7.7,0,11.5-8.4,11.5-25.1v-251c0-16.7-3.8-25.1-11.5-25.1h-11.5"/>
<path pointer-events="stroke" class="st4" d="M260.5,433.6h11.2c5.9,0,8.9-3.3,8.9-10v-9c0-6,3-9,8.9-9h11"/>
<path pointer-events="stroke" class="st4" d="M383.4,605.6h128.5c7.7,0,11.5-5.6,11.5-16.8V421.3c0-11.2-3.8-16.8-11.5-16.8h-11.5"
	/>
<path pointer-events="stroke" class="st4" d="M383.4,548.6h72.4c12.1,0,18.1,3.8,18.1,11.4v86.3c0,7.6,6,11.4,18.1,11.4h72.4"/>
<path pointer-events="stroke" class="st4" d="M754.4,490.6h29.9c3.8,0,5.8-6.9,5.8-20.7V263.3c0-13.8-1.9-20.7-5.8-20.7h-5.8"/>
<path pointer-events="stroke" class="st4" d="M564.7,577.9h-7.8c-5.2,0-7.8-3.3-7.8-9.8V470c0-6.5,2.6-9.8,7.8-9.8h7.8"/>
<path pointer-events="stroke" class="st4" d="M163.4,545.6H21.5c-5.2,0-7.8-2.5-7.8-7.4v-74.4c0-5,2.6-7.4,7.8-7.4h7.8"/>
</svg>
