<?xml version="1.0" encoding="utf-8"?>
<!-- Generator: Adobe Illustrator 21.0.0, SVG Export Plug-In . SVG Version: 6.00 Build 0)  -->
<svg version="1.1" id="Слой_1" xmlns="http://www.w3.org/2000/svg" xmlns:xlink="http://www.w3.org/1999/xlink" x="0px" y="0px"
	 viewBox="0 0 901.9 763" style="enable-background:new 0 0 901.9 763;" xml:space="preserve">
<style type="text/css">
	.st0{fill:none;}
	.st1{fill:none;stroke:#000000;stroke-linecap:square;stroke-miterlimit:10;}
	.st2{fill:#E0E0E0;stroke:#000000;stroke-miterlimit:10;}
	.st3{fill:#FFFFFF;stroke:#000000;stroke-miterlimit:10;}
	.st4{fill:none;stroke:#000000;stroke-miterlimit:10;}
	.st5{font-family:'Verdana';}
	.st6{font-size:14px;}
	.st7{font-family:'Helvetica-Bold';}
	.st8{font-size:12px;}
	.st9{font-family:'Helvetica';}
	.st10{enable-background:new    ;}
</style>
<path class="st0" d="z"/>
<path pointer-events="all" class="st1" d="M697.4,540.5"/>
<path pointer-events="all" class="st1" d="M697.4,566.5"/>
<path pointer-events="all" class="st1" d="M697.4,576.5"/>
<g>
	<path pointer-events="all" class="st2" d="M338.4,420.5v-26h200v26"/>
	<path pointer-events="all" class="st3" d="M338.4,420.5v94h200v-94"/>
	<path pointer-events="all" class="st4" d="M338.4,420.5h200"/>
	<g transform="translate(-0.5 -0.5)">
		<text transform="matrix(1 0 0 1 381.8914 411.5)" class="st5 st6">academic_years</text>
	</g>
	<rect x="338.4" y="420.5" pointer-events="all" class="st0" width="200" height="30"/>
	<path pointer-events="all" class="st1" d="M538.4,450.5h-200"/>
	<g transform="translate(-0.5 -0.5)">
		<text transform="matrix(1 0 0 1 374.3938 439.5)" class="st7 st8" style="text-decoration: underline;">id (bigint, auto inc.)</text>
	</g>
	<rect x="338.4" y="420.5" pointer-events="all" class="st0" width="30" height="30"/>
	<path pointer-events="all" class="st1" d="M368.4,420.5v30"/>
	<g transform="translate(-0.5 -0.5)">
		<text transform="matrix(1 0 0 1 344.3938 439.5)" class="st9 st8">PK</text>
	</g>
	<rect x="338.4" y="450.5" pointer-events="all" class="st0" width="200" height="26"/>
	<g transform="translate(-0.5 -0.5)">
		<text transform="matrix(1 0 0 1 374.3938 469.5)" class="st9 st8">calendar_year (varchar 255)</text>
	</g>
	<rect x="338.4" y="450.5" pointer-events="all" class="st0" width="30" height="26"/>
	<path pointer-events="all" class="st1" d="M368.4,450.5v26"/>
	<rect x="338.4" y="476.5" pointer-events="all" class="st0" width="200" height="26"/>
	<g transform="translate(-0.5 -0.5)">
		<text transform="matrix(1 0 0 1 374.3938 495.5)" class="st9 st8">number (varchar 255)</text>
	</g>
	<rect x="338.4" y="476.5" pointer-events="all" class="st0" width="30" height="26"/>
	<path pointer-events="all" class="st1" d="M368.4,476.5v26"/>
	<rect x="338.4" y="502.5" pointer-events="all" class="st0" width="200" height="10"/>
	<rect x="338.4" y="502.5" pointer-events="all" class="st0" width="30" height="10"/>
	<path pointer-events="all" class="st1" d="M368.4,502.5v10"/>
</g>
<path pointer-events="all" class="st2" d="M627.4,64.5v-26h190v26"/>
<path pointer-events="all" class="st1" d="M627.4,120.5"/>
<path pointer-events="all" class="st1" d="M627.4,146.5"/>
<path pointer-events="all" class="st1" d="M627.4,172.5"/>
<path pointer-events="all" class="st1" d="M627.4,198.5"/>
<path pointer-events="all" class="st1" d="M627.4,208.5"/>
<g>
	<path pointer-events="all" class="st3" d="M627.4,64.5v144h190v-144"/>
	<path pointer-events="all" class="st4" d="M627.4,64.5h190"/>
	<g transform="translate(-0.5 -0.5)">
		<text transform="matrix(1 0 0 1 680.6775 55.5)" class="st5 st6">auditoriums</text>
	</g>
	<rect x="627.4" y="64.5" pointer-events="all" class="st0" width="190" height="30"/>
	<path pointer-events="all" class="st1" d="M817.4,94.5h-190"/>
	<g transform="translate(-0.5 -0.5)">
		<text transform="matrix(1 0 0 1 663.3938 83.5)" class="st7 st8" style="text-decoration: underline;">id (bigint, auto inc.)</text>
	</g>
	<rect x="627.4" y="64.5" pointer-events="all" class="st0" width="30" height="30"/>
	<path pointer-events="all" class="st1" d="M657.4,64.5v30"/>
	<g transform="translate(-0.5 -0.5)">
		<text transform="matrix(1 0 0 1 633.3938 83.5)" class="st9 st8">PK</text>
	</g>
	<rect x="627.4" y="94.5" pointer-events="all" class="st0" width="190" height="26"/>
	<g transform="translate(-0.5 -0.5)">
		<text transform="matrix(1 0 0 1 663.3938 113.5)" class="st9 st8">capacity (smallint)</text>
	</g>
	<rect x="627.4" y="94.5" pointer-events="all" class="st0" width="30" height="26"/>
	<path pointer-events="all" class="st1" d="M657.4,94.5v26"/>
	<rect x="627.4" y="120.5" pointer-events="all" class="st0" width="190" height="26"/>
	<g transform="translate(-0.5 -0.5)">
		<text transform="matrix(1 0 0 1 663.3938 139.5)" class="st9 st8">has_screen (boolean)</text>
	</g>
	<rect x="627.4" y="120.5" pointer-events="all" class="st0" width="30" height="26"/>
	<path pointer-events="all" class="st1" d="M657.4,120.5v26"/>
	<rect x="627.4" y="146.5" pointer-events="all" class="st0" width="190" height="26"/>
	<g transform="translate(-0.5 -0.5)">
		<text transform="matrix(1 0 0 1 663.3938 165.5)" class="st9 st8">index (varchar 255)</text>
	</g>
	<rect x="627.4" y="146.5" pointer-events="all" class="st0" width="30" height="26"/>
	<path pointer-events="all" class="st1" d="M657.4,146.5v26"/>
	<rect x="627.4" y="172.5" pointer-events="all" class="st0" width="190" height="26"/>
	<g transform="translate(-0.5 -0.5)">
		<text transform="matrix(1 0 0 1 663.3938 191.5)" class="st9 st8" style="text-decoration: underline;">faculty_name (varchar255)</text>
	</g>
	<rect x="627.4" y="172.5" pointer-events="all" class="st0" width="30" height="26"/>
	<path pointer-events="all" class="st1" d="M657.4,172.5v26"/>
	<g transform="translate(-0.5 -0.5)">
		<text transform="matrix(1 0 0 1 633.3938 191.5)" class="st9 st8">FK</text>
	</g>
	<rect x="627.4" y="198.5" pointer-events="all" class="st0" width="190" height="10"/>
	<rect x="627.4" y="198.5" pointer-events="all" class="st0" width="30" height="10"/>
	<path pointer-events="all" class="st1" d="M657.4,198.5v10"/>
</g>
<path pointer-events="all" class="st1" d="M67.4,130.5"/>
<path pointer-events="all" class="st1" d="M67.4,140.5"/>
<g>
	<path pointer-events="all" class="st2" d="M67.4,74.5v-26h190v26"/>
	<path pointer-events="all" class="st3" d="M67.4,74.5v66h190v-66"/>
	<path pointer-events="all" class="st4" d="M67.4,74.5h190"/>
	<g transform="translate(-0.5 -0.5)">
		<text transform="matrix(1 0 0 1 117.738 65.5)" class="st5 st6">departments</text>
	</g>
	<rect x="67.4" y="74.5" pointer-events="all" class="st0" width="190" height="30"/>
	<path pointer-events="all" class="st1" d="M257.4,104.5h-190"/>
	<g transform="translate(-0.5 -0.5)">
		<text transform="matrix(1 0 0 1 103.3938 93.5)" class="st7 st8" style="text-decoration: underline;">name (varchar 255)</text>
	</g>
	<rect x="67.4" y="74.5" pointer-events="all" class="st0" width="30" height="30"/>
	<path pointer-events="all" class="st1" d="M97.4,74.5v30"/>
	<g transform="translate(-0.5 -0.5)">
		<text transform="matrix(1 0 0 1 73.3938 93.5)" class="st9 st8">PK</text>
	</g>
	<rect x="67.4" y="104.5" pointer-events="all" class="st0" width="190" height="26"/>
	<g transform="translate(-0.5 -0.5)">
		<text transform="matrix(1 0 0 1 103.3938 123.5)" class="st9 st8" style="text-decoration: underline;">faculty_name (varchar 255)</text>
	</g>
	<rect x="67.4" y="104.5" pointer-events="all" class="st0" width="30" height="26"/>
	<path pointer-events="all" class="st1" d="M97.4,104.5v26"/>
	<g transform="translate(-0.5 -0.5)">
		<text transform="matrix(1 0 0 1 73.3938 123.5)" class="st9 st8">FK</text>
	</g>
	<rect x="67.4" y="130.5" pointer-events="all" class="st0" width="190" height="10"/>
	<rect x="67.4" y="130.5" pointer-events="all" class="st0" width="30" height="10"/>
	<path pointer-events="all" class="st1" d="M97.4,130.5v10"/>
</g>
<g>
	<path pointer-events="all" class="st2" d="M602.4,478.5v-26h190v26"/>
	<path pointer-events="all" class="st3" d="M602.4,478.5v66h190v-66"/>
	<path pointer-events="all" class="st4" d="M602.4,478.5h190"/>
	<g transform="translate(-0.5 -0.5)">
		<text transform="matrix(1 0 0 1 616.4836 469.5)" class="st5 st6">day_schedules_studies</text>
	</g>
	<rect x="602.4" y="478.5" pointer-events="all" class="st0" width="190" height="30"/>
	<path pointer-events="all" class="st0" d="M792.4,508.5h-190"/>
	<g transform="translate(-0.5 -0.5)">
		<text transform="matrix(1 0 0 1 638.3938 497.5)" class="st9 st8" style="text-decoration: underline;">day_schedule_id (bigint)</text>
	</g>
	<rect x="602.4" y="478.5" pointer-events="all" class="st0" width="30" height="30"/>
	<path pointer-events="all" class="st1" d="M632.4,478.5v30"/>
	<g transform="translate(-0.5 -0.5)">
		<text transform="matrix(1 0 0 1 608.3938 497.5)" class="st9 st8">FK</text>
	</g>
	<rect x="602.4" y="508.5" pointer-events="all" class="st0" width="190" height="26"/>
	<path pointer-events="all" class="st0" d="M602.4,534.5"/>
	<g transform="translate(-0.5 -0.5)">
		<text transform="matrix(1 0 0 1 638.3938 527.5)" class="st9 st8" style="text-decoration: underline;">study_id (bigint)</text>
	</g>
	<rect x="602.4" y="508.5" pointer-events="all" class="st0" width="30" height="26"/>
	<path pointer-events="all" class="st1" d="M632.4,508.5v26"/>
	<g transform="translate(-0.5 -0.5)">
		<text transform="matrix(1 0 0 1 608.3938 527.5)" class="st9 st8">FK</text>
	</g>
	<rect x="602.4" y="534.5" pointer-events="all" class="st0" width="190" height="10"/>
	<path pointer-events="all" class="st1" d="M602.4,544.5"/>
	<rect x="602.4" y="534.5" pointer-events="all" class="st0" width="30" height="10"/>
	<path pointer-events="all" class="st1" d="M632.4,534.5v10"/>
</g>
<path pointer-events="all" class="st2" d="M67.4,194.5v-26h220v26"/>
<path pointer-events="all" class="st3" d="M67.4,194.5v66h220v-66"/>
<path pointer-events="all" class="st4" d="M67.4,194.5h220"/>
<g transform="translate(-0.5 -0.5)">
	<text transform="matrix(1 0 0 1 89.8831 185.5)" class="st5 st6">departments_professors</text>
</g>
<rect x="102.9" y="224.5" pointer-events="all" class="st0" width="243.5" height="30"/>
<path pointer-events="all" class="st0" d="M282.4,224.5h-215"/>
<g transform="translate(-0.5 -0.5)">
	<text transform="matrix(1 0 0 1 103.3938 213.5)" class="st9 st8" style="text-decoration: underline;">department_name (varchar 255)</text>
</g>
<rect x="67.4" y="194.5" pointer-events="all" class="st0" width="30" height="30"/>
<path pointer-events="all" class="st1" d="M97.4,194.5v30"/>
<g transform="translate(-0.5 -0.5)">
	<text transform="matrix(1 0 0 1 73.3938 213.5)" class="st9 st8">FK</text>
</g>
<rect x="67.4" y="224.5" pointer-events="all" class="st0" width="220" height="26"/>
<path pointer-events="all" class="st0" d="M67.4,250.5"/>
<g transform="translate(-0.5 -0.5)">
	<text transform="matrix(1 0 0 1 103.3938 243.5)" class="st9 st8" style="text-decoration: underline;">professor_card (varchar 255)</text>
</g>
<rect x="67.4" y="224.5" pointer-events="all" class="st0" width="30" height="26"/>
<path pointer-events="all" class="st1" d="M97.4,224.5v26"/>
<g transform="translate(-0.5 -0.5)">
	<text transform="matrix(1 0 0 1 73.3938 243.5)" class="st9 st8">FK</text>
</g>
<rect x="67.4" y="250.5" pointer-events="all" class="st0" width="220" height="10"/>
<path pointer-events="all" class="st1" d="M67.4,260.5"/>
<rect x="67.4" y="250.5" pointer-events="all" class="st0" width="30" height="10"/>
<path pointer-events="all" class="st1" d="M97.4,250.5v10"/>
<g>
	<path pointer-events="all" class="st2" d="M337.4,74.5v-26h190v26"/>
	<path pointer-events="all" class="st3" d="M337.4,74.5v34h190v-34"/>
	<path pointer-events="all" class="st4" d="M337.4,74.5h190"/>
	<g transform="translate(-0.5 -0.5)">
		<text transform="matrix(1 0 0 1 403.2351 65.5)" class="st5 st6">faculties</text>
	</g>
	<rect x="337.4" y="74.5" pointer-events="all" class="st0" width="190" height="30"/>
	<path pointer-events="all" class="st0" d="M527.4,104.5h-190"/>
	<g transform="translate(-0.5 -0.5)">
		<text transform="matrix(1 0 0 1 373.3938 93.5)" class="st7 st8" style="text-decoration: underline;">name (varchar 255)</text>
	</g>
	<rect x="337.4" y="74.5" pointer-events="all" class="st0" width="30" height="30"/>
	<path pointer-events="all" class="st1" d="M367.4,74.5v30"/>
	<g transform="translate(-0.5 -0.5)">
		<text transform="matrix(1 0 0 1 343.3938 93.5)" class="st9 st8">PK</text>
	</g>
</g>
<path pointer-events="all" class="st1" d="M-72.6,730.5"/>
<path pointer-events="all" class="st1" d="M-72.6,756.5"/>
<path pointer-events="all" class="st1" d="M-72.6,782.5"/>
<path pointer-events="all" class="st1" d="M-72.6,792.5"/>
<g>
	<path pointer-events="all" class="st2" d="M602.4,593.5v-26h180v26"/>
	<path pointer-events="all" class="st3" d="M602.4,593.5v118h180v-118"/>
	<path pointer-events="all" class="st4" d="M602.4,593.5h180"/>
	<g transform="translate(-0.5 -0.5)">
		<text transform="matrix(1 0 0 1 640.8679 584.5)" class="st5 st6">day_schedules</text>
	</g>
	<rect x="602.4" y="593.5" pointer-events="all" class="st0" width="180" height="30"/>
	<path pointer-events="all" class="st1" d="M782.4,623.5h-180"/>
	<g transform="translate(-0.5 -0.5)">
		<text transform="matrix(1 0 0 1 638.3938 612.5)" class="st7 st8" style="text-decoration: underline;">id (bigint, auto inc.)</text>
	</g>
	<rect x="602.4" y="593.5" pointer-events="all" class="st0" width="30" height="30"/>
	<path pointer-events="all" class="st1" d="M632.4,593.5v30"/>
	<g transform="translate(-0.5 -0.5)">
		<text transform="matrix(1 0 0 1 608.3938 612.5)" class="st9 st8">PK</text>
	</g>
	<rect x="602.4" y="623.5" pointer-events="all" class="st0" width="180" height="26"/>
	<g transform="translate(-0.5 -0.5)">
		<text transform="matrix(1 0 0 1 638.3938 642.5)" class="st9 st8">semester (varchar255)</text>
	</g>
	<rect x="602.4" y="623.5" pointer-events="all" class="st0" width="30" height="26"/>
	<path pointer-events="all" class="st1" d="M632.4,623.5v26"/>
	<rect x="602.4" y="649.5" pointer-events="all" class="st0" width="180" height="26"/>
	<g transform="translate(-0.5 -0.5)">
		<text transform="matrix(1 0 0 1 638.3938 668.5)" class="st9 st8">study_day (varchar255)</text>
	</g>
	<rect x="602.4" y="649.5" pointer-events="all" class="st0" width="30" height="26"/>
	<path pointer-events="all" class="st1" d="M632.4,649.5v26"/>
	<rect x="602.4" y="675.5" pointer-events="all" class="st0" width="180" height="26"/>
	<g transform="translate(-0.5 -0.5)">
		<text transform="matrix(1 0 0 1 638.3938 694.5)" class="st9 st8" style="text-decoration: underline;">group_id</text>
	</g>
	<rect x="602.4" y="675.5" pointer-events="all" class="st0" width="30" height="26"/>
	<path pointer-events="all" class="st1" d="M632.4,675.5v26"/>
	<g transform="translate(-0.5 -0.5)">
		<text transform="matrix(1 0 0 1 608.3938 694.5)" class="st9 st8">FK</text>
	</g>
	<rect x="602.4" y="701.5" pointer-events="all" class="st0" width="180" height="10"/>
	<rect x="602.4" y="701.5" pointer-events="all" class="st0" width="30" height="10"/>
	<path pointer-events="all" class="st1" d="M632.4,701.5v10"/>
</g>
<path pointer-events="all" class="st1" d="M657.4,730.5"/>
<path pointer-events="all" class="st1" d="M657.4,756.5"/>
<path pointer-events="all" class="st1" d="M657.4,782.5"/>
<path pointer-events="all" class="st1" d="M657.4,792.5"/>
<g>
	<path pointer-events="all" class="st2" d="M201.4,564.5v-26h220v26"/>
	<path pointer-events="all" class="st3" d="M201.4,564.5v118h220v-118"/>
	<path pointer-events="all" class="st4" d="M201.4,564.5h220"/>
	<g transform="translate(-0.5 -0.5)">
		<text transform="matrix(1 0 0 1 287.3586 555.5)" class="st5 st6">groups</text>
	</g>
	<rect x="201.4" y="564.5" pointer-events="all" class="st0" width="220" height="30"/>
	<path pointer-events="all" class="st1" d="M421.4,594.5h-220"/>
	<g transform="translate(-0.5 -0.5)">
		<text transform="matrix(1 0 0 1 237.3938 583.5)" class="st7 st8" style="text-decoration: underline;">id (bigint, auto inc.)</text>
	</g>
	<rect x="201.4" y="564.5" pointer-events="all" class="st0" width="30" height="30"/>
	<path pointer-events="all" class="st1" d="M231.4,564.5v30"/>
	<g transform="translate(-0.5 -0.5)">
		<text transform="matrix(1 0 0 1 207.3938 583.5)" class="st9 st8">PK</text>
	</g>
	<rect x="201.4" y="594.5" pointer-events="all" class="st0" width="220" height="26"/>
	<g transform="translate(-0.5 -0.5)">
		<text transform="matrix(1 0 0 1 237.3938 613.5)" class="st9 st8">group_number (varchar 255)</text>
	</g>
	<rect x="201.4" y="594.5" pointer-events="all" class="st0" width="30" height="26"/>
	<path pointer-events="all" class="st1" d="M231.4,594.5v26"/>
	<rect x="201.4" y="620.5" pointer-events="all" class="st0" width="220" height="26"/>
	<g transform="translate(-0.5 -0.5)">
		<text transform="matrix(1 0 0 1 237.3938 639.5)" class="st9 st8" style="text-decoration: underline;">academic_year_id (bigint)</text>
	</g>
	<rect x="201.4" y="620.5" pointer-events="all" class="st0" width="30" height="26"/>
	<path pointer-events="all" class="st1" d="M231.4,620.5v26"/>
	<g transform="translate(-0.5 -0.5)">
		<text transform="matrix(1 0 0 1 207.3938 639.5)" class="st9 st8">FK</text>
	</g>
	<rect x="201.4" y="646.5" pointer-events="all" class="st0" width="220" height="26"/>
	<g transform="translate(-0.5 -0.5)">
		<text transform="matrix(1 0 0 1 237.3938 665.5)" class="st9 st8" style="text-decoration: underline;">department_name (varchar 255)</text>
	</g>
	<rect x="201.4" y="646.5" pointer-events="all" class="st0" width="30" height="26"/>
	<path pointer-events="all" class="st1" d="M231.4,646.5v26"/>
	<g transform="translate(-0.5 -0.5)">
		<text transform="matrix(1 0 0 1 207.3938 665.5)" class="st9 st8">FK</text>
	</g>
	<rect x="201.4" y="672.5" pointer-events="all" class="st0" width="220" height="10"/>
	<rect x="201.4" y="672.5" pointer-events="all" class="st0" width="30" height="10"/>
	<path pointer-events="all" class="st1" d="M231.4,672.5v10"/>
</g>
<path pointer-events="all" class="st1" d="M327.4,250.5"/>
<path pointer-events="all" class="st1" d="M327.4,276.5"/>
<path pointer-events="all" class="st1" d="M327.4,302.5"/>
<path pointer-events="all" class="st1" d="M327.4,328.5"/>
<path pointer-events="all" class="st1" d="M327.4,354.5"/>
<path pointer-events="all" class="st1" d="M327.4,364.5"/>
<g>
	<path pointer-events="all" class="st2" d="M327.4,194.5v-26h210v26"/>
	<path pointer-events="all" class="st3" d="M327.4,194.5v170h210v-170"/>
	<path pointer-events="all" class="st4" d="M327.4,194.5h210"/>
	<g transform="translate(-0.5 -0.5)">
		<text transform="matrix(1 0 0 1 395.989 185.5)" class="st5 st6">professors</text>
	</g>
	<rect x="327.4" y="194.5" pointer-events="all" class="st0" width="210" height="30"/>
	<path pointer-events="all" class="st1" d="M537.4,224.5h-210"/>
	<g transform="translate(-0.5 -0.5)">
		<text transform="matrix(1 0 0 1 363.3938 213.5)" class="st7 st8" style="text-decoration: underline;">professor_card (varchar 255)</text>
	</g>
	<rect x="327.4" y="194.5" pointer-events="all" class="st0" width="30" height="30"/>
	<path pointer-events="all" class="st1" d="M357.4,194.5v30"/>
	<g transform="translate(-0.5 -0.5)">
		<text transform="matrix(1 0 0 1 333.3938 213.5)" class="st9 st8">PK</text>
	</g>
	<rect x="327.4" y="224.5" pointer-events="all" class="st0" width="210" height="26"/>
	<g transform="translate(-0.5 -0.5)">
		<text transform="matrix(1 0 0 1 363.3938 243.5)" class="st9 st8">name (varchar 255)</text>
	</g>
	<rect x="327.4" y="224.5" pointer-events="all" class="st0" width="30" height="26"/>
	<path pointer-events="all" class="st1" d="M357.4,224.5v26"/>
	<rect x="327.4" y="250.5" pointer-events="all" class="st0" width="210" height="26"/>
	<g transform="translate(-0.5 -0.5)">
		<text transform="matrix(1 0 0 1 363.3938 269.5)" class="st9 st8">surname (varchar 255)</text>
	</g>
	<rect x="327.4" y="250.5" pointer-events="all" class="st0" width="30" height="26"/>
	<path pointer-events="all" class="st1" d="M357.4,250.5v26"/>
	<rect x="327.4" y="276.5" pointer-events="all" class="st0" width="210" height="26"/>
	<g transform="translate(-0.5 -0.5)">
		<text transform="matrix(1 0 0 1 363.3938 295.5)" class="st9 st8">phone_number (varchar 255)</text>
	</g>
	<rect x="327.4" y="276.5" pointer-events="all" class="st0" width="30" height="26"/>
	<path pointer-events="all" class="st1" d="M357.4,276.5v26"/>
	<rect x="327.4" y="302.5" pointer-events="all" class="st0" width="210" height="26"/>
	<g transform="translate(-0.5 -0.5)">
		<text transform="matrix(1 0 0 1 363.3938 321.5)" class="st9 st8">rank (varchar 255)</text>
	</g>
	<rect x="327.4" y="302.5" pointer-events="all" class="st0" width="30" height="26"/>
	<path pointer-events="all" class="st1" d="M357.4,302.5v26"/>
	<rect x="327.4" y="328.5" pointer-events="all" class="st0" width="210" height="26"/>
	<g transform="translate(-0.5 -0.5)">
		<text transform="matrix(1 0 0 1 363.3938 347.5)" class="st9 st8">is_dismissed (boolean)</text>
	</g>
	<rect x="327.4" y="328.5" pointer-events="all" class="st0" width="30" height="26"/>
	<path pointer-events="all" class="st1" d="M357.4,328.5v26"/>
	<rect x="327.4" y="354.5" pointer-events="all" class="st0" width="210" height="10"/>
	<rect x="327.4" y="354.5" pointer-events="all" class="st0" width="30" height="10"/>
	<path pointer-events="all" class="st1" d="M357.4,354.5v10"/>
</g>
<g>
	<path pointer-events="all" class="st2" d="M67.4,312.5v-26h230v26"/>
	<path pointer-events="all" class="st3" d="M67.4,312.5v196h230v-196"/>
	<path pointer-events="all" class="st4" d="M67.4,312.5h230"/>
	<g transform="translate(-0.5 -0.5)">
		<text transform="matrix(1 0 0 1 152.1926 303.5)" class="st5 st6">students</text>
	</g>
	<rect x="67.4" y="312.5" pointer-events="all" class="st0" width="230" height="30"/>
	<path pointer-events="all" class="st1" d="M297.4,342.5h-230"/>
	<g transform="translate(-0.5 -0.5)">
		<text transform="matrix(1 0 0 1 103.3938 331.5)" class="st7 st8" style="text-decoration: underline;">student_card (varchar 255)</text>
	</g>
	<rect x="67.4" y="312.5" pointer-events="all" class="st0" width="30" height="30"/>
	<path pointer-events="all" class="st1" d="M97.4,312.5v30"/>
	<g transform="translate(-0.5 -0.5)">
		<text transform="matrix(1 0 0 1 73.3938 331.5)" class="st9 st8">PK</text>
	</g>
	<rect x="67.4" y="342.5" pointer-events="all" class="st0" width="230" height="26"/>
	<path pointer-events="all" class="st1" d="M67.4,368.5"/>
	<g transform="translate(-0.5 -0.5)">
		<text transform="matrix(1 0 0 1 103.3938 361.5)" class="st9 st8">name (varchar 255)</text>
	</g>
	<rect x="67.4" y="342.5" pointer-events="all" class="st0" width="30" height="26"/>
	<path pointer-events="all" class="st1" d="M97.4,342.5v26"/>
	<rect x="67.4" y="368.5" pointer-events="all" class="st0" width="230" height="26"/>
	<path pointer-events="all" class="st1" d="M67.4,394.5"/>
	<g transform="translate(-0.5 -0.5)">
		<text transform="matrix(1 0 0 1 103.3938 387.5)" class="st9 st8">surname (varchar 255)</text>
	</g>
	<rect x="67.4" y="368.5" pointer-events="all" class="st0" width="30" height="26"/>
	<path pointer-events="all" class="st1" d="M97.4,368.5v26"/>
	<rect x="67.4" y="394.5" pointer-events="all" class="st0" width="230" height="26"/>
	<path pointer-events="all" class="st1" d="M67.4,420.5"/>
	<g transform="translate(-0.5 -0.5)">
		<text transform="matrix(1 0 0 1 103.3938 413.5)" class="st9 st8">phone_number (varchar 255)</text>
	</g>
	<rect x="67.4" y="394.5" pointer-events="all" class="st0" width="30" height="26"/>
	<path pointer-events="all" class="st1" d="M97.4,394.5v26"/>
	<rect x="67.4" y="420.5" pointer-events="all" class="st0" width="230" height="26"/>
	<path pointer-events="all" class="st1" d="M67.4,446.5"/>
	<g transform="translate(-0.5 -0.5)">
		<text transform="matrix(1 0 0 1 103.3938 439.5)" class="st10"><tspan x="0" y="0" class="st9 st8" style="text-decoration: underline;">department_name </tspan><tspan x="100.7" y="0" class="st9 st8">(varchar 255)</tspan></text>
	</g>
	<rect x="67.4" y="420.5" pointer-events="all" class="st0" width="30" height="26"/>
	<path pointer-events="all" class="st1" d="M97.4,420.5v26"/>
	<g transform="translate(-0.5 -0.5)">
		<text transform="matrix(1 0 0 1 73.3938 439.5)" class="st9 st8">FK</text>
	</g>
	<rect x="67.4" y="446.5" pointer-events="all" class="st0" width="230" height="26"/>
	<path pointer-events="all" class="st1" d="M67.4,472.5"/>
	<g transform="translate(-0.5 -0.5)">
		<text transform="matrix(1 0 0 1 103.3938 465.5)" class="st9 st8" style="text-decoration: underline;">academic_year id (bigint)</text>
	</g>
	<rect x="67.4" y="446.5" pointer-events="all" class="st0" width="30" height="26"/>
	<path pointer-events="all" class="st1" d="M97.4,446.5v26"/>
	<g transform="translate(-0.5 -0.5)">
		<text transform="matrix(1 0 0 1 73.3938 465.5)" class="st9 st8">FK</text>
	</g>
	<rect x="67.4" y="472.5" pointer-events="all" class="st0" width="230" height="26"/>
	<path pointer-events="all" class="st1" d="M67.4,498.5"/>
	<g transform="translate(-0.5 -0.5)">
		<text transform="matrix(1 0 0 1 103.3938 491.5)" class="st9 st8" style="text-decoration: underline;">group_id (bigint)</text>
	</g>
	<rect x="67.4" y="472.5" pointer-events="all" class="st0" width="30" height="26"/>
	<path pointer-events="all" class="st1" d="M97.4,472.5v26"/>
	<g transform="translate(-0.5 -0.5)">
		<text transform="matrix(1 0 0 1 73.3938 491.5)" class="st9 st8">FK</text>
	</g>
	<rect x="67.4" y="498.5" pointer-events="all" class="st0" width="230" height="10"/>
	<path pointer-events="all" class="st1" d="M67.4,508.5"/>
	<rect x="67.4" y="498.5" pointer-events="all" class="st0" width="30" height="10"/>
	<path pointer-events="all" class="st1" d="M97.4,498.5v10"/>
</g>
<path pointer-events="all" class="st1" d="M587.4,314.5"/>
<path pointer-events="all" class="st1" d="M587.4,340.5"/>
<path pointer-events="all" class="st1" d="M587.4,366.5"/>
<path pointer-events="all" class="st1" d="M587.4,392.5"/>
<path pointer-events="all" class="st1" d="M587.4,402.5"/>
<g>
	<path pointer-events="all" class="st2" d="M587.4,258.5v-26h230v26"/>
	<path pointer-events="all" class="st3" d="M587.4,258.5v144h230v-144"/>
	<path pointer-events="all" class="st4" d="M587.4,258.5h230"/>
	<g transform="translate(-0.5 -0.5)">
		<text transform="matrix(1 0 0 1 677.4597 249.5)" class="st5 st6">studies</text>
	</g>
	<rect x="587.4" y="258.5" pointer-events="all" class="st0" width="230" height="30"/>
	<path pointer-events="all" class="st1" d="M817.4,288.5h-230"/>
	<g transform="translate(-0.5 -0.5)">
		<text transform="matrix(1 0 0 1 623.3938 277.5)" class="st7 st8" style="text-decoration: underline;">id (bigint, auto inc.)</text>
	</g>
	<rect x="587.4" y="258.5" pointer-events="all" class="st0" width="30" height="30"/>
	<path pointer-events="all" class="st1" d="M617.4,258.5v30"/>
	<g transform="translate(-0.5 -0.5)">
		<text transform="matrix(1 0 0 1 593.3938 277.5)" class="st9 st8">PK</text>
	</g>
	<rect x="587.4" y="288.5" pointer-events="all" class="st0" width="230" height="26"/>
	<g transform="translate(-0.5 -0.5)">
		<text transform="matrix(1 0 0 1 623.3938 307.5)" class="st9 st8">name (varchar 255)</text>
	</g>
	<rect x="587.4" y="288.5" pointer-events="all" class="st0" width="30" height="26"/>
	<path pointer-events="all" class="st1" d="M617.4,288.5v26"/>
	<rect x="587.4" y="314.5" pointer-events="all" class="st0" width="230" height="26"/>
	<g transform="translate(-0.5 -0.5)">
		<text transform="matrix(1 0 0 1 623.3938 333.5)" class="st9 st8">type (varchar 255)</text>
	</g>
	<rect x="587.4" y="314.5" pointer-events="all" class="st0" width="30" height="26"/>
	<path pointer-events="all" class="st1" d="M617.4,314.5v26"/>
	<rect x="587.4" y="340.5" pointer-events="all" class="st0" width="230" height="26"/>
	<g transform="translate(-0.5 -0.5)">
		<text transform="matrix(1 0 0 1 623.3938 359.5)" class="st9 st8" style="text-decoration: underline;">professor_card (varchar 255)</text>
	</g>
	<rect x="587.4" y="340.5" pointer-events="all" class="st0" width="30" height="26"/>
	<path pointer-events="all" class="st1" d="M617.4,340.5v26"/>
	<g transform="translate(-0.5 -0.5)">
		<text transform="matrix(1 0 0 1 593.3938 359.5)" class="st9 st8">FK</text>
	</g>
	<rect x="587.4" y="366.5" pointer-events="all" class="st0" width="230" height="26"/>
	<g transform="translate(-0.5 -0.5)">
		<text transform="matrix(1 0 0 1 623.3938 385.5)" class="st9 st8" style="text-decoration: underline;">auditorium_id (bigint)</text>
	</g>
	<rect x="587.4" y="366.5" pointer-events="all" class="st0" width="30" height="26"/>
	<path pointer-events="all" class="st1" d="M617.4,366.5v26"/>
	<g transform="translate(-0.5 -0.5)">
		<text transform="matrix(1 0 0 1 593.3938 385.5)" class="st9 st8">FK</text>
	</g>
	<rect x="587.4" y="392.5" pointer-events="all" class="st0" width="230" height="10"/>
	<rect x="587.4" y="392.5" pointer-events="all" class="st0" width="30" height="10"/>
	<path pointer-events="all" class="st1" d="M617.4,392.5v10"/>
</g>
<path pointer-events="stroke" class="st4" d="M337.4,89.5h-30c-6.7,0-10,3.3-10,10v9c0,6-3.3,9-10,9h-30"/>
<path pointer-events="stroke" class="st4" d="M527.4,89.5h40c6.7,0,10,3.3,10,10v76c0,6.7,3.3,10,10,10h40"/>
<path pointer-events="stroke" class="st4" d="M287.4,237.5h11.2c5.9,0,8.9-3.3,8.9-10v-9c0-6,3-9,8.9-9h11"/>
<path pointer-events="stroke" class="st4" d="M67.4,209.5h-5c-3.3,0-5-3.1-5-9.4v-94.2c0-6.3,1.7-9.4,5-9.4h5"/>
<path pointer-events="stroke" class="st4" d="M201.4,659.5H66.2c-15,0-23.3-16-23.3-48V131c0-32,3.9-48,11.6-48H66"/>
<path pointer-events="stroke" class="st4" d="M66.2,440.5h-7.8c-5.2,0-7.8-9.7-7.8-29.2V119.2c0-19.5,2.6-29.2,7.8-29.2h7.8"/>
<path class="st0" d="z"/>
<path pointer-events="stroke" class="st4" d="M537.4,208.5h20c3.3,0,5,5.1,5,15.2v115.6c0,10.1,1.7,15.2,5,15.2h20"/>
<path pointer-events="stroke" class="st4" d="M816.6,381.5h11.5c7.7,0,11.5-8.4,11.5-25.1v-251c0-16.7-3.8-25.1-11.5-25.1h-11.5"/>
<path pointer-events="stroke" class="st4" d="M298.5,464.5h11.2c5.9,0,8.9-3.3,8.9-10v-9c0-6,3-9,8.9-9h11"/>
<path pointer-events="stroke" class="st4" d="M421.4,636.5h128.5c7.7,0,11.5-5.6,11.5-16.8V452.2c0-11.2-3.8-16.8-11.5-16.8h-11.5"
	/>
<path pointer-events="stroke" class="st4" d="M421.4,579.5h72.4c12.1,0,18.1,3.8,18.1,11.4v86.3c0,7.6,6,11.4,18.1,11.4h72.4"/>
<path pointer-events="stroke" class="st4" d="M792.4,521.5h29.9c3.8,0,5.8-6.9,5.8-20.7V294.2c0-13.8-1.9-20.7-5.8-20.7h-5.8"/>
<path pointer-events="stroke" class="st4" d="M602.7,608.8h-7.8c-5.2,0-7.8-3.3-7.8-9.8v-98.1c0-6.5,2.6-9.8,7.8-9.8h7.8"/>
<path pointer-events="stroke" class="st4" d="M201.4,576.5H59.5c-5.2,0-7.8-2.5-7.8-7.4v-74.4c0-5,2.6-7.4,7.8-7.4h7.8"/>
</svg>
